<svg xmlns="http://www.w3.org/2000/svg" viewBox="0 0 36.07 36.07"><defs><style>.cls-1{fill:#fff;}</style></defs><title>icon-twitter</title><g id="Layer_2" data-name="Layer 2"><g id="ELEMENTS"><rect width="36.07" height="36.07" rx="9.13" ry="9.13"/><path class="cls-1" d="M27.87,12.05a7.73,7.73,0,0,1-2,.56c.32,0,.78-.62,1-.85a3.74,3.74,0,0,0,.65-1.19s0-.08,0-.11a.16.16,0,0,0-.1,0,9.67,9.67,0,0,1-2.33.89.15.15,0,0,1-.16,0c-.07-.07-.13-.15-.2-.21a4.4,4.4,0,0,0-1.13-.69A4.08,4.08,0,0,0,18.07,15c0,.09,0,.1-.08.09A12.5,12.5,0,0,1,10,11c-.09-.11-.14-.11-.22,0a4.08,4.08,0,0,0,.69,4.8,5.15,5.15,0,0,0,.5.43,3.93,3.93,0,0,1-1.55-.43c-.09-.06-.14,0-.15.08a2.48,2.48,0,0,0,0,.46,4.1,4.1,0,0,0,2.53,3.27,2.32,2.32,0,0,0,.51.16,4.55,4.55,0,0,1-1.51,0c-.11,0-.16,0-.11.14a4.25,4.25,0,0,0,3.18,2.67c.14,0,.29,0,.43.06,0,0,0,0,0,0a5,5,0,0,1-2.18,1.16,7.87,7.87,0,0,1-3.3.42c-.18,0-.21,0-.26,0s0,.07,0,.12a7.84,7.84,0,0,0,.69.41,11,11,0,0,0,2.2.88A11.76,11.76,0,0,0,22.9,23a12,12,0,0,0,3.16-8.74c0-.12.15-.19.24-.26a7.4,7.4,0,0,0,1.55-1.61.5.5,0,0,0,.1-.31v0C28,12,28,12,27.87,12.05Z"/></g></g></svg>